<?xml version="1.0" standalone="no"?>
<!DOCTYPE svg PUBLIC "-//W3C//DTD SVG 20010904//EN"
        "http://www.w3.org/TR/2001/REC-SVG-20010904/DTD/svg10.dtd">
<svg version="1.0" xmlns="http://www.w3.org/2000/svg"
     width="841.000000pt" height="908.000000pt" viewBox="0 0 841.000000 908.000000"
     preserveAspectRatio="xMidYMid meet">

    <g transform="translate(0.000000,908.000000) scale(0.100000,-0.100000)"
       fill="#000000" stroke="none">
        <path d="M3985 8088 c-2 -13 -36 -228 -74 -478 l-70 -455 -47 -50 c-139 -147
-214 -295 -244 -475 -36 -214 44 -472 198 -642 19 -21 32 -41 29 -45 -9 -8
-145 79 -225 143 -64 52 -170 164 -191 201 -9 16 -15 16 -100 -5 -315 -76
-699 -269 -967 -485 -431 -349 -746 -839 -879 -1372 -46 -181 -63 -292 -76
-481 -50 -731 236 -1475 757 -1973 310 -297 669 -478 1104 -558 148 -27 506
-25 665 5 256 47 382 92 459 162 57 53 82 93 96 154 21 94 -22 177 -118 225
-86 43 -146 51 -377 50 -119 -1 -240 4 -280 10 -224 38 -403 108 -589 234 -85
57 -256 210 -256 228 0 5 501 9 1143 9 l1142 0 -3 22 c-27 189 -168 388 -348
493 l-64 38 7 51 c5 28 8 132 8 231 -1 197 -11 266 -67 425 -183 517 -661 875
-1201 897 -76 3 -140 9 -142 14 -11 17 148 34 330 34 175 0 198 -2 296 -28
259 -67 449 -178 636 -370 260 -268 402 -626 403 -1013 l0 -109 65 -52 c160
-131 282 -337 324 -550 l16 -83 397 0 396 0 -18 70 c-50 196 -187 369 -357
453 -73 36 -69 20 -53 222 5 66 14 185 20 265 6 80 24 316 40 525 l29 380 62
65 c186 195 313 446 354 700 17 108 19 301 5 405 -15 100 -18 108 -43 102
-251 -59 -347 -75 -347 -60 0 5 30 22 68 37 251 108 481 293 579 466 112 199
137 408 77 618 -39 133 -101 238 -206 349 l-59 61 -69 449 c-39 246 -70 458
-70 469 0 28 -24 47 -49 39 -11 -3 -126 -138 -256 -300 -130 -162 -242 -295
-249 -295 -6 0 -52 9 -101 19 -238 51 -587 54 -830 7 -71 -14 -133 -26 -137
-26 -4 0 -109 127 -234 283 -124 155 -235 290 -246 300 -28 24 -57 22 -63 -5z
m598 -1274 c45 -23 66 -44 88 -86 38 -75 20 -158 -49 -220 -89 -81 -224 -51
-282 63 -76 147 95 318 243 243z m1116 2 c43 -23 99 -91 107 -130 24 -128 -94
-245 -222 -221 -42 7 -116 71 -134 115 -7 17 -11 53 -8 85 5 63 40 115 98 146
42 23 120 25 159 5z"/>
    </g>
</svg>
